<svg width="50" height="50" viewBox="0 0 50 50" fill="none" xmlns="http://www.w3.org/2000/svg">
<rect width="50" height="50" rx="25" fill="#00BFEF"/>
<g clip-path="url(#clip0_241_2)">
<path d="M19.684 19.8059L19.312 20.1899L19.804 20.6099C20.612 21.2819 21.532 21.7939 22.564 22.1459C22.956 22.2819 23.296 22.3699 23.584 22.4099C23.896 22.4579 24.348 22.4859 24.94 22.4939C25.356 22.4939 25.748 22.4859 26.116 22.4699C26.5 22.4539 26.76 22.4299 26.896 22.3979C27 22.3739 27.06 22.3779 27.076 22.4099C27.092 22.4419 27.046 22.5259 26.938 22.6619C26.83 22.7979 26.636 23.0179 26.356 23.3219C26.084 23.6019 25.684 24.0099 25.156 24.5459L23.2 26.5139L19 30.7139L19.336 31.0739L19.696 31.4099L23.896 27.2099L25.864 25.2539C26.4 24.7259 26.808 24.3259 27.088 24.0539C27.392 23.7739 27.612 23.5799 27.748 23.4719C27.884 23.3639 27.968 23.3179 28 23.3339C28.032 23.3499 28.036 23.4099 28.012 23.5139C27.98 23.6499 27.956 23.9099 27.94 24.2939C27.924 24.6619 27.916 25.0539 27.916 25.4699C27.924 26.0619 27.952 26.5139 28 26.8259C28.04 27.1139 28.128 27.4539 28.264 27.8459C28.616 28.8779 29.128 29.7979 29.8 30.6059L30.22 31.0979L30.604 30.7259L31 30.3539L30.7 30.0299C30.54 29.8779 30.284 29.5179 29.932 28.9499C29.42 28.1019 29.1 27.1899 28.972 26.2139C28.844 25.2459 28.91 24.2879 29.17 23.3399C29.43 22.3919 29.872 21.5219 30.496 20.7299L30.988 20.1059L30.664 19.7579L30.328 19.4219L30.004 19.6739C29.636 19.9539 29.24 20.2239 28.816 20.4839C28.392 20.7439 28.04 20.9299 27.76 21.0419C27.328 21.2099 26.778 21.3399 26.11 21.4319C25.442 21.5239 24.892 21.5419 24.46 21.4859C23.716 21.3979 22.962 21.1879 22.198 20.8559C21.434 20.5239 20.828 20.1419 20.38 19.7099L20.056 19.4099L19.684 19.8059Z" fill="white"/>
</g>
<defs>
<clipPath id="clip0_241_2">
<rect width="16.78" height="19.19" fill="white" transform="translate(16.6101 15.4099)"/>
</clipPath>
</defs>
</svg>
